<?xml version="1.0" encoding="UTF-8"?>
<!-- Generator: Adobe Illustrator 25.0.1, SVG Export Plug-In . SVG Version: 6.00 Build 0)  -->
<svg version="1.1" id="Vrstva_1" xmlns="http://www.w3.org/2000/svg" xmlns:xlink="http://www.w3.org/1999/xlink" x="0px" y="0px" viewBox="0 0 1465.9 366.6" style="enable-background:new 0 0 1465.9 366.6;" xml:space="preserve">
<style type="text/css">
	.st0{fill:#FFFFFF;}
</style>
<path class="st0" d="M293.8,103.1l53.7-19.6c4-1.4,7.2,0.6,7.2,4.5v157.5c0,4-3.2,8.3-7.2,9.8l-107.4,39.1l-7.1,2.8l0-7.4v-51.5"/>
<path class="st0" d="M107.6,136.2l0,109.3c0,4,3.2,8.3,7.2,9.8l107.4,39.1l7.1,2.8l0-7.4V132.3c0-4-3.2-8.3-7.2-9.8l-58.8-21.4  l0,18.3l-18.5-6.9l0,18.6l-18.6-6.8l0,18.6"/>
<polygon class="st0" points="124.1,86.8 107.7,80.7 107.7,96.8 124.1,102.9 "/>
<polygon class="st0" points="124.1,105.4 107.7,99.3 107.7,115.4 124.1,121.5 "/>
<polygon class="st0" points="142.7,112.2 126.3,106.1 126.3,122.2 142.7,128.3 "/>
<polygon class="st0" points="124.1,123.7 107.7,117.5 107.7,133.6 124.1,139.8 "/>
<polygon class="st0" points="142.7,93.6 126.3,87.5 126.3,103.6 142.7,109.7 "/>
<polygon class="st0" points="161.4,100.4 144.9,94.3 144.9,110.4 161.4,116.5 "/>
<g>
	<path class="st0" d="M550.6,178.7c0,46-20.3,68.9-60.9,68.9c-39.4,0-59.1-22.4-59.1-67.3V91.9h32.8v88.8c0,24.8,9.2,37.1,27.5,37.1   c18,0,27-11.9,27-35.8v-90h32.7V178.7z"/>
	<path class="st0" d="M703.9,244.9h-37.5l-22.6-39.4c-1.7-3-3.3-5.7-4.9-8c-1.6-2.3-3.1-4.4-4.7-6c-1.6-1.7-3.2-3-5-3.8   c-1.7-0.9-3.6-1.3-5.6-1.3h-8.8v58.6h-32.7v-153H634c35.2,0,52.8,13.9,52.8,41.6c0,5.3-0.8,10.3-2.3,14.8   c-1.6,4.5-3.7,8.6-6.6,12.2c-2.8,3.6-6.3,6.8-10.3,9.4c-4,2.6-8.5,4.7-13.4,6.2v0.4c2.2,0.7,4.2,1.9,6.3,3.5s4,3.5,5.9,5.6   c1.9,2.1,3.7,4.4,5.4,6.9c1.7,2.5,3.3,4.9,4.7,7.2L703.9,244.9z M614.9,117.8v42.6H629c7,0,12.6-2.1,16.9-6.4   c4.3-4.3,6.5-9.7,6.5-16.1c0-13.4-7.6-20.1-22.8-20.1H614.9z"/>
	<path class="st0" d="M717.4,244.9v-153h52.8c16.2,0,28.6,3.1,37.3,9.4c8.7,6.3,13,15.1,13,26.5c0,8.3-2.6,15.5-7.9,21.7   c-5.3,6.2-12.1,10.5-20.3,12.9v0.4c10.3,1.4,18.6,5.4,24.7,12.1c6.2,6.7,9.3,14.8,9.3,24.4c0,14-4.8,25.1-14.3,33.3   c-9.5,8.2-22.5,12.3-38.9,12.3H717.4z M750.1,117.3v36.3h14.4c6.7,0,12.1-1.7,15.9-5.2c3.9-3.4,5.8-8.2,5.8-14.2   c0-11.2-8-16.9-23.9-16.9H750.1z M750.1,179.2v40.3h17.7c7.6,0,13.5-1.8,17.8-5.5c4.3-3.7,6.4-8.7,6.4-15.2   c0-6.1-2.1-10.9-6.3-14.4c-4.2-3.5-10.1-5.2-17.6-5.2H750.1z"/>
	<path class="st0" d="M882.9,244.9h-32.7v-153h32.7V244.9z"/>
	<path class="st0" d="M1017.7,120h-41.4v124.9h-32.8V120h-41.2V91.9h115.3V120z"/>
	<path class="st0" d="M1124.2,244.9h-87v-153h83.6V120h-51v34h47.4v28h-47.4v35h54.3V244.9z"/>
	<path class="st0" d="M1251.4,239.5c-10.6,5.4-24.4,8.1-41.5,8.1c-22.3,0-39.7-6.9-52.5-20.7c-12.7-13.8-19.1-32.2-19.1-55.2   c0-24.5,7.2-44.3,21.5-59.5c14.3-15.2,32.9-22.8,55.8-22.8c14.2,0,26.1,1.9,35.8,5.7v33.2c-9.7-6.1-20.8-9.2-33.2-9.2   c-13.6,0-24.6,4.5-33,13.6c-8.4,9-12.5,21.3-12.5,36.7c0,14.8,3.9,26.6,11.8,35.4c7.9,8.8,18.5,13.2,31.9,13.2   c12.7,0,24.4-3.3,35-9.8V239.5z"/>
	<path class="st0" d="M1402.2,244.9h-32.8v-62.3h-60.1v62.3h-32.7v-153h32.7v61h60.1v-61h32.8V244.9z"/>
</g>
</svg>